<svg width="756" height="631" xmlns="http://www.w3.org/2000/svg" xmlns:xlink="http://www.w3.org/1999/xlink" xml:space="preserve" overflow="hidden"><defs><clipPath id="clip0"><rect x="243" y="36" width="756" height="631"/></clipPath></defs><g clip-path="url(#clip0)" transform="translate(-243 -36)"><path d="M92202.6 21154.8 92202.6 21445.9C92202.6 21449.2 92202.1 21452.4 92201 21455.5L92101.2 21736.8C92097.1 21748.3 92086.2 21756 92074 21756L92074 21756C92058 21756 92045.1 21743.1 92045.1 21727.1L92045.1 21479.7C92045.1 21463.7 92032.2 21450.8 92016.2 21450.8L91906.6 21450.8C91890.7 21450.8 91877.8 21437.9 91877.8 21422L91877.8 21154.8C91877.8 21138.9 91890.7 21126 91906.6 21126L92173.8 21126C92189.7 21126 92202.6 21138.9 92202.6 21154.8 92202.6 21154.8 92202.6 21154.8 92202.6 21154.8Z" fill="#A37A46" transform="matrix(1 0 0 1.00159 -91634.7 -21123.5)"/><path d="M124646 21154.8 124646 21445.9C124646 21449.2 124645 21452.4 124644 21455.5L124545 21736.8C124540 21748.3 124530 21756 124517 21756L124517 21756C124501 21756 124489 21743.1 124489 21727.1L124489 21479.7C124489 21463.7 124476 21450.8 124460 21450.8L124350 21450.8C124334 21450.8 124321 21437.9 124321 21422L124321 21154.8C124321 21138.9 124334 21126 124350 21126L124617 21126C124633 21126 124646 21138.9 124646 21154.8Z" fill="#A37A46" transform="matrix(1 0 0 1.00159 -123647 -21123.5)"/></g></svg>