<svg width="712" height="594" xmlns="http://www.w3.org/2000/svg" xmlns:xlink="http://www.w3.org/1999/xlink" xml:space="preserve" overflow="hidden"><defs><clipPath id="clip0"><rect x="231" y="53" width="712" height="594"/></clipPath></defs><g clip-path="url(#clip0)" transform="translate(-231 -53)"><path d="M86840.7 19924.6 86840.7 20198.7C86840.7 20201.8 86840.2 20204.8 86839.1 20207.7L86745.1 20472.7C86741.2 20483.5 86731 20490.7 86719.5 20490.7L86719.5 20490.7C86704.5 20490.7 86692.3 20478.6 86692.3 20463.6L86692.3 20230.5C86692.3 20215.5 86680.1 20203.3 86665.1 20203.3L86561.9 20203.3C86546.9 20203.3 86534.7 20191.2 86534.7 20176.2L86534.7 19924.6C86534.7 19909.6 86546.9 19897.4 86561.9 19897.4L86813.5 19897.4C86828.5 19897.4 86840.7 19909.6 86840.7 19924.6 86840.7 19924.6 86840.7 19924.6 86840.7 19924.6Z" fill="#A37A46" transform="matrix(-1 1.22602e-16 -1.22465e-16 -1.00112 87477.7 20566.8)"/><path d="M117397 19924.6 117397 20198.7C117397 20201.8 117397 20204.8 117396 20207.7L117302 20472.7C117298 20483.5 117288 20490.8 117276 20490.7L117276 20490.7C117261 20490.7 117249 20478.6 117249 20463.6L117249 20230.5C117249 20215.5 117237 20203.4 117222 20203.3L117119 20203.3C117104 20203.3 117091 20191.2 117091 20176.2L117091 19924.6C117091 19909.6 117104 19897.4 117119 19897.4L117370 19897.4C117385 19897.4 117397 19909.6 117397 19924.6Z" fill="#A37A46" transform="matrix(-1 1.22602e-16 -1.22465e-16 -1.00112 117628 20566.8)"/></g></svg>